<?xml version="1.0" standalone="no"?>
<!DOCTYPE svg PUBLIC "-//W3C//DTD SVG 20010904//EN"
 "http://www.w3.org/TR/2001/REC-SVG-20010904/DTD/svg10.dtd">
<svg version="1.0" xmlns="http://www.w3.org/2000/svg"
 width="1000.000000pt" height="1000.000000pt" viewBox="0 0 1000.000000 1000.000000"
 preserveAspectRatio="xMidYMid meet">
<metadata>
Created by potrace 1.14, written by Peter Selinger 2001-2017
</metadata>
<g transform="translate(0.000000,1000.000000) scale(0.100000,-0.100000)"
fill="#000000" stroke="none">
<path d="M4885 9435 c-60 -35 -121 -70 -135 -77 -22 -12 -892 -515 -977 -564
-17 -11 -83 -48 -145 -84 -62 -36 -120 -69 -130 -75 -24 -15 -155 -90 -213
-123 -27 -16 -138 -80 -245 -142 -107 -62 -208 -120 -225 -130 -16 -9 -122
-70 -235 -135 -113 -65 -218 -126 -235 -135 -16 -10 -113 -66 -215 -125 -342
-198 -435 -252 -478 -275 -28 -16 -42 -31 -43 -44 0 -27 0 -3504 0 -3733 l1
-172 127 -73 c71 -40 137 -78 148 -85 11 -7 26 -15 34 -19 8 -4 117 -67 244
-141 126 -73 231 -133 233 -133 2 0 28 -16 58 -35 30 -19 58 -35 61 -35 3 0
24 -11 46 -26 22 -14 56 -34 76 -45 63 -36 817 -471 848 -490 17 -11 37 -22
45 -26 14 -6 148 -83 180 -103 8 -6 35 -21 60 -34 87 -47 86 -37 22 -163 -63
-124 -237 -464 -372 -728 -48 -93 -152 -296 -230 -450 -78 -154 -171 -335
-206 -402 -35 -67 -64 -124 -64 -128 0 -3 21 6 48 21 26 15 72 40 102 57 86
47 243 136 260 147 8 6 22 13 30 17 8 4 82 45 164 91 82 46 172 97 200 112 28
15 94 52 146 82 52 30 126 71 163 92 38 20 152 85 255 143 103 58 212 119 242
135 126 69 167 92 202 115 21 12 40 23 42 23 6 0 519 293 911 520 88 51 230
133 315 183 85 49 174 100 197 113 23 13 140 81 260 151 120 69 232 134 250
144 102 57 514 296 545 316 21 12 40 23 42 23 3 0 38 19 78 43 178 106 249
147 254 147 3 0 30 16 60 35 30 19 57 35 59 35 3 0 22 11 43 23 36 23 475 277
550 318 20 12 41 24 45 29 8 7 13 3918 5 3924 -3 3 -210 124 -298 174 -19 11
-116 67 -215 124 -349 202 -662 383 -880 508 -121 70 -305 176 -410 237 -104
61 -210 122 -235 135 -25 14 -117 67 -205 118 -88 51 -173 101 -190 110 -16
10 -52 30 -80 47 -27 16 -57 32 -65 36 -8 4 -28 16 -45 27 -16 10 -41 25 -55
33 -14 7 -41 23 -60 34 -313 181 -637 366 -645 369 -5 2 -59 -25 -120 -61z"/>
</g>
</svg>
